<?xml version="1.0" encoding="UTF-8"?>
<svg version="1.1" xmlns="http://www.w3.org/2000/svg" width="1023" height="701">
<path d="M0 0 C0.66 0 1.32 0 2 0 C1.99476318 0.84071045 1.98952637 1.6814209 1.98413086 2.54760742 C1.96686384 5.73282609 1.95444226 8.91802054 1.94506836 12.10327148 C1.94010727 13.46949052 1.93333628 14.83570444 1.92456055 16.2019043 C0.97560076 30.9596389 0.97560076 30.9596389 4 45 C5.40701775 63.29123074 1.21323094 85.71330128 -11 100 C-11.88733034 101.61034024 -12.77449687 103.22077141 -13.66015625 104.83203125 C-16.14992588 108.86066725 -19.10406341 112.56810958 -21.9765625 116.328125 C-23.37599395 118.1760229 -24.71420362 120.07130544 -26 122 C-26.66 122 -27.32 122 -28 122 C-28.21269531 122.69480469 -28.42539062 123.38960938 -28.64453125 124.10546875 C-30.37282475 127.79614737 -32.89063195 130.41662777 -35.6875 133.3125 C-36.77807935 134.46675334 -37.86792651 135.62169892 -38.95703125 136.77734375 C-39.48248535 137.33147949 -40.00793945 137.88561523 -40.54931641 138.45654297 C-44.06308937 142.1950271 -47.41737467 146.08322407 -50.68359375 150.0390625 C-51.22113281 150.68617188 -51.75867188 151.33328125 -52.3125 152 C-52.78300781 152.5775 -53.25351562 153.155 -53.73828125 153.75 C-55 155 -55 155 -57 155 C-57.25974609 155.58426758 -57.51949219 156.16853516 -57.78710938 156.77050781 C-59.084656 159.15561164 -60.49341122 160.75190637 -62.40625 162.671875 C-63.06753906 163.33574219 -63.72882812 163.99960938 -64.41015625 164.68359375 C-65.09980469 165.36550781 -65.78945313 166.04742187 -66.5 166.75 C-67.18964844 167.44738281 -67.87929688 168.14476562 -68.58984375 168.86328125 C-69.25113281 169.52199219 -69.91242187 170.18070313 -70.59375 170.859375 C-71.19896484 171.46233398 -71.80417969 172.06529297 -72.42773438 172.68652344 C-74 174 -74 174 -76 174 C-76.31130859 174.81404297 -76.31130859 174.81404297 -76.62890625 175.64453125 C-78.52437248 178.90084503 -81.16302506 181.19674069 -83.9375 183.6875 C-84.47568359 184.18572266 -85.01386719 184.68394531 -85.56835938 185.19726562 C-88.02683465 187.4314164 -89.81422018 188.93807339 -93 190 C-93 190.66 -93 191.32 -93 192 C-94.8984375 193.7265625 -94.8984375 193.7265625 -97.375 195.625 C-98.59316406 196.57246094 -98.59316406 196.57246094 -99.8359375 197.5390625 C-102 199 -102 199 -104 199 C-104.33 199.99 -104.66 200.98 -105 202 C-107 203 -109 204 -111 205 C-112.6693922 206.66393667 -114.33582647 208.33084392 -116 210 C-126.38404725 217.78803544 -137.94900646 224.21472985 -149 231 C-149.67337402 231.4134668 -150.34674805 231.82693359 -151.04052734 232.25292969 C-151.63945801 232.62063477 -152.23838867 232.98833984 -152.85546875 233.3671875 C-157.82317625 236.41784659 -162.77677922 239.48323149 -167.6875 242.625 C-171.86122545 245.29305249 -176.07954067 247.86877421 -180.3359375 250.40234375 C-183.40614388 252.24356722 -186.45341317 254.1199634 -189.5 256 C-213.25887158 270.63790455 -213.25887158 270.63790455 -223.109375 275.55078125 C-225.83432146 276.91693684 -228.40654694 278.40084204 -231 280 C-243.10737935 287.46557257 -255.93135125 293.36568408 -268.94360352 299.0690918 C-271.07548873 300.03417292 -273.16335147 301.066031 -275.25 302.125 C-282.92372047 306 -282.92372047 306 -287 306 C-287 306.66 -287 307.32 -287 308 C-287.78503906 308.24234375 -288.57007813 308.4846875 -289.37890625 308.734375 C-296.2660039 310.86134297 -296.2660039 310.86134297 -302.6875 314.0625 C-305.87178703 315.92500751 -308.67478343 317.00018834 -312.1640625 318.08984375 C-315.14760019 319.04737031 -318.09169865 320.08992517 -321.04125977 321.14648438 C-342.9705054 329 -342.9705054 329 -347 329 C-346.66226563 329.52722656 -346.32453125 330.05445313 -345.9765625 330.59765625 C-340.00296561 341.49170144 -339.8585248 354.86689091 -340.01953125 367.078125 C-340.21529746 369.93709253 -340.21529746 369.93709253 -339 372 C-339.33 372.66 -339.66 373.32 -340 374 C-340.66 374 -341.32 374 -342 374 C-342 374.78375 -342 375.5675 -342 376.375 C-342 377.91666667 -342 379.45833333 -342 381 C-338.6863949 385.41814013 -335.18021215 385.96395757 -330 387 C-330 387.66 -330 388.32 -330 389 C-328.80375 389.350625 -327.6075 389.70125 -326.375 390.0625 C-315.70835926 393.61804691 -305.80531053 399.57670878 -296 405 C-294.14591915 406.00015911 -292.291752 407.00015824 -290.4375 408 C-285.20068349 410.85644537 -280.09678544 413.90259663 -275 417 C-274.28070312 417.42539062 -273.56140625 417.85078125 -272.8203125 418.2890625 C-260.81597615 425.39197432 -248.80332567 432.66850575 -237.64453125 441.05078125 C-235.60260796 442.55583254 -233.55018104 443.99927484 -231.44921875 445.41796875 C-230.84513184 445.82700439 -230.24104492 446.23604004 -229.61865234 446.6574707 C-228.43642625 447.45441062 -227.25066483 448.24613701 -226.06103516 449.03198242 C-224.67233123 449.97152412 -223.33085786 450.98016934 -222 452 C-222 452.66 -222 453.32 -222 454 C-221.41605469 454.10957031 -220.83210937 454.21914063 -220.23046875 454.33203125 C-217.74179439 455.07732602 -216.33526328 456.07183373 -214.3125 457.6875 C-210.57721089 460.60679375 -206.70015297 463.18166063 -202.6875 465.703125 C-202.130625 466.13109375 -201.57375 466.5590625 -201 467 C-201 467.66 -201 468.32 -201 469 C-200.41863281 469.27199219 -199.83726562 469.54398437 -199.23828125 469.82421875 C-197.02103848 470.98894837 -195.16769184 472.28400162 -193.1875 473.8125 C-190.50452237 475.87129521 -187.79171128 477.84166997 -185 479.75 C-184.01 480.4925 -183.02 481.235 -182 482 C-182 482.66 -182 483.32 -182 484 C-181.26652344 484.2578125 -180.53304687 484.515625 -179.77734375 484.78125 C-176.88973507 486.0483863 -174.96326825 487.46954089 -172.5625 489.5 C-167.80880993 493.41732655 -162.88329267 496.99395339 -157.82250977 500.49804688 C-154.570566 502.77519178 -151.75978549 505.15511099 -149 508 C-148.01 508.66 -147.02 509.32 -146 510 C-146 510.66 -146 511.32 -146 512 C-145.47019531 512.22171875 -144.94039062 512.4434375 -144.39453125 512.671875 C-141.153984 514.46924216 -138.474453 516.83458712 -135.6875 519.25 C-135.11298096 519.74363037 -134.53846191 520.23726074 -133.9465332 520.74584961 C-132.8108837 521.72167053 -131.67632798 522.69876609 -130.54296875 523.67724609 C-128.6127286 525.33199944 -126.64783749 526.94361473 -124.6875 528.5625 C-123.800625 529.366875 -122.91375 530.17125 -122 531 C-122 531.66 -122 532.32 -122 533 C-121.20142578 533.31130859 -121.20142578 533.31130859 -120.38671875 533.62890625 C-117.03421458 535.5548129 -114.50268304 538.20249368 -111.8125 540.9375 C-111.23806152 541.51725586 -110.66362305 542.09701172 -110.07177734 542.69433594 C-105.02314688 547.85440586 -100.4388588 553.30781636 -96 559 C-95.36320313 559.78117188 -94.72640625 560.56234375 -94.0703125 561.3671875 C-90.67135404 565.58306301 -87.82254008 569.8048266 -85.296875 574.59375 C-83.87555447 577.23089893 -82.31441057 579.75777448 -80.75 582.3125 C-76.5875651 589.39227464 -73.3719866 596.86255494 -70.05859375 604.3671875 C-67.60048625 609.93300575 -64.88897499 615.34170897 -62.09814453 620.74658203 C-58.02061332 628.67279326 -54.23778249 636.52977095 -51.1484375 644.90625 C-49.0138631 650.65653205 -46.69104631 656.36627454 -44.10253906 661.9284668 C-41.19153789 668.23872474 -39.00638878 674.70357396 -36.875 681.3125 C-36.18768209 683.43449824 -35.49768579 685.5556313 -34.8046875 687.67578125 C-34.35585205 689.0666394 -34.35585205 689.0666394 -33.89794922 690.4855957 C-33.06637304 692.99247342 -33.06637304 692.99247342 -31.86376953 695.19213867 C-31 697 -31 697 -31.375 699.25 C-31.58125 699.8275 -31.7875 700.405 -32 701 C-32.99 700.67 -33.98 700.34 -35 700 C-36.0625 697.5234375 -36.0625 697.5234375 -37 694.375 C-38.06160687 690.94798772 -39.11950534 687.72752783 -40.5625 684.4375 C-41.81179262 681.45006112 -42.64122147 678.68767918 -43.4375 675.5625 C-44.52150225 671.41377933 -45.87193894 667.79931093 -47.9375 664.046875 C-49.46443167 661.10528604 -50.71795307 658.05371982 -52 655 C-53.4751804 651.49830202 -54.9553542 647.99875486 -56.4375 644.5 C-56.81970703 643.58863281 -57.20191406 642.67726563 -57.59570312 641.73828125 C-59.7794583 636.5995976 -62.18481719 631.81736024 -65 627 C-65.94140625 624.7421875 -65.94140625 624.7421875 -66.5625 622.875 C-67.32417404 620.59470878 -68.14813895 618.75391409 -69.39501953 616.68261719 C-70.88503728 614.19215247 -72.20560227 611.68786363 -73.48828125 609.0859375 C-73.94420654 608.16546631 -74.40013184 607.24499512 -74.86987305 606.29663086 C-75.34593994 605.33249268 -75.82200684 604.36835449 -76.3125 603.375 C-83.50035166 588.92771154 -90.78889791 574.3938016 -100.7734375 561.6328125 C-102 560 -102 560 -103.4375 557.375 C-105.33023674 554.49804015 -107.57918601 552.65310473 -110.2265625 550.48046875 C-112.63827235 548.46716912 -114.81058518 546.2502319 -117 544 C-117.8971875 543.1646875 -117.8971875 543.1646875 -118.8125 542.3125 C-120 541 -120 541 -120 539 C-120.556875 538.773125 -121.11375 538.54625 -121.6875 538.3125 C-125.96311877 535.88579746 -129.13916819 532.56749627 -131 528 C-131.66 528 -132.32 528 -133 528 C-133.33 527.34 -133.66 526.68 -134 526 C-134.99 525.67 -135.98 525.34 -137 525 C-138.0828125 523.88625 -138.0828125 523.88625 -139.1875 522.75 C-142.08483882 519.91704649 -144.90413355 518.15077301 -148.42578125 516.2109375 C-148.94527344 515.81132813 -149.46476563 515.41171875 -150 515 C-150 514.01 -150 513.02 -150 512 C-150.8353125 511.5978125 -150.8353125 511.5978125 -151.6875 511.1875 C-155.94639083 509.00050201 -159.55646968 506.57738611 -163.1953125 503.45703125 C-166.23491457 501.00298023 -169.4788636 498.84075546 -172.69140625 496.62109375 C-175.21650242 494.84797208 -177.59103404 492.92717277 -180 491 C-182.65378434 489.18143771 -185.31388601 487.3740733 -187.98828125 485.5859375 C-188.65214844 485.06257813 -189.31601562 484.53921875 -190 484 C-190 483.34 -190 482.68 -190 482 C-190.69222656 481.773125 -191.38445313 481.54625 -192.09765625 481.3125 C-195.65364022 479.70441034 -198.44543046 477.45554014 -201.4375 475 C-206.36212872 471.04280302 -211.3489723 467.22088853 -216.5 463.5625 C-217.06259521 463.16224609 -217.62519043 462.76199219 -218.20483398 462.34960938 C-221.76191954 459.83585787 -225.37539982 457.41476077 -229 455 C-230.52375529 453.9207804 -232.04467992 452.83755108 -233.5625 451.75 C-237.49376567 448.98091845 -241.51280272 446.42959638 -245.625 443.9375 C-249.14163097 441.80385963 -252.53209749 439.68633496 -255.75 437.125 C-265.52574378 429.52856216 -277.11074338 423.81168191 -288 418 C-289.1240625 417.38640625 -290.248125 416.7728125 -291.40625 416.140625 C-299.48356789 411.74967925 -307.68193401 407.71530649 -316.02734375 403.859375 C-318.73418719 402.60668695 -321.40600821 401.30155469 -324.06640625 399.953125 C-327.65009022 398.14639479 -331.30023539 396.55735257 -335 395 C-336.14339844 394.48179687 -337.28679688 393.96359375 -338.46484375 393.4296875 C-349.45695049 388.23815213 -349.45695049 388.23815213 -361.25 389.125 C-364.91352362 390.69201499 -366.73959619 392.69012299 -369 396 C-371.125 398.3125 -371.125 398.3125 -373 400 C-373.66 400 -374.32 400 -375 400 C-375.226875 400.61875 -375.45375 401.2375 -375.6875 401.875 C-377.38862958 404.6292098 -379.05376154 404.82150461 -382 406 C-382.24492188 406.57621094 -382.48984375 407.15242188 -382.7421875 407.74609375 C-384.61044002 411.09386301 -387.54689177 412.91040546 -390.625 415.0625 C-391.51251953 415.7131543 -391.51251953 415.7131543 -392.41796875 416.37695312 C-397.93963294 420.29459176 -404.01285178 423.65504515 -411 423 C-411 423.66 -411 424.32 -411 425 C-410.2678125 425.268125 -409.535625 425.53625 -408.78125 425.8125 C-405.26762114 427.31270109 -402.39314879 429.37102198 -399.28125 431.5625 C-396.92638737 433.04638604 -394.608699 434.04470177 -392 435 C-392 435.66 -392 436.32 -392 437 C-391.34 437 -390.68 437 -390 437 C-390.33 437.99 -390.66 438.98 -391 440 C-391.99 440 -392.98 440 -394 440 C-393.4946875 440.98742187 -392.989375 441.97484375 -392.46875 442.9921875 C-391.81228987 444.28635176 -391.15605133 445.58062845 -390.5 446.875 C-390.16613281 447.52597656 -389.83226562 448.17695313 -389.48828125 448.84765625 C-387 453.7734375 -387 453.7734375 -387 456 C-386.05125 456.28875 -385.1025 456.5775 -384.125 456.875 C-381 458 -381 458 -379 460 C-379.66 460.99 -380.32 461.98 -381 463 C-380.525625 463.391875 -380.05125 463.78375 -379.5625 464.1875 C-378 466 -378 466 -377.625 468.5625 C-377.41875 469.366875 -377.2125 470.17125 -377 471 C-375.34561387 471.69658363 -373.67745682 472.36096883 -372 473 C-370.125 475.3125 -370.125 475.3125 -369 478 C-369.3125 480.8125 -369.3125 480.8125 -370 483 C-369.01 483 -368.02 483 -367 483 C-366.17988688 484.55851755 -365.36923787 486.12201716 -364.5625 487.6875 C-364.11003906 488.55761719 -363.65757812 489.42773438 -363.19140625 490.32421875 C-362.033529 492.92469716 -361.47708964 495.20694126 -361 498 C-360.67 498.99 -360.34 499.98 -360 501 C-359.34 501 -358.68 501 -358 501 C-356.76720862 503.12297076 -355.53791257 505.24777102 -354.3125 507.375 C-353.94455322 508.01332764 -353.57660645 508.65165527 -353.19750977 509.30932617 C-351.13321451 512.92059605 -349.21035198 516.54667683 -347.4375 520.3125 C-345.33538467 524.65973171 -342.66376305 528.21555276 -339.55078125 531.89453125 C-337.14203228 535.16484786 -335.83198532 537.73988988 -336.375 541.8125 C-336.58125 542.534375 -336.7875 543.25625 -337 544 C-338.32 544.33 -339.64 544.66 -341 545 C-342.37050754 542.62445359 -343.00762993 540.93362884 -343.32421875 538.1796875 C-344.11692953 534.44982292 -345.44160176 532.65581621 -347.875 529.75 C-348.57367187 528.89921875 -349.27234375 528.0484375 -349.9921875 527.171875 C-351.99775743 524.8321876 -351.99775743 524.8321876 -355 523 C-355.921875 521.1171875 -355.921875 521.1171875 -356.75 518.875 C-358.9562648 513.64347816 -362.13634448 510.08955474 -366 506 C-367.4205494 504.39927062 -368.83720313 502.79507586 -370.25 501.1875 C-372.01628116 499.19160228 -373.7673526 497.22775528 -375.671875 495.36328125 C-377 494 -377 494 -378 492 C-380.52733235 491.34444881 -380.52733235 491.34444881 -383 491 C-383.10957031 490.40832031 -383.21914063 489.81664062 -383.33203125 489.20703125 C-384.267925 484.54278029 -385.32713255 481.00930117 -388 477 C-388 476.34 -388 475.68 -388 475 C-388.99 475.33 -389.98 475.66 -391 476 C-391.48108275 474.58398286 -391.95978141 473.16715563 -392.4375 471.75 C-392.70433594 470.96109375 -392.97117187 470.1721875 -393.24609375 469.359375 C-393.91954708 467.25178012 -394.49150595 465.15246027 -395 463 C-395.66 463 -396.32 463 -397 463 C-397.33 460.69 -397.66 458.38 -398 456 C-398.66 456 -399.32 456 -400 456 C-401.485 449.565 -401.485 449.565 -403 443 C-404.65 443.33 -406.3 443.66 -408 444 C-408.99 444 -409.98 444 -411 444 C-411 443.01 -411 442.02 -411 441 C-414.56126004 439.90981835 -417.79543336 439.02557083 -421.5 438.5625 C-425 438 -425 438 -428.125 436.4375 C-432.65386873 434.28732609 -437.40123813 434.82464367 -442.3046875 434.9921875 C-443.19414063 434.99476563 -444.08359375 434.99734375 -445 435 C-445.33 434.67 -445.66 434.34 -446 434 C-446.33 434.66 -446.66 435.32 -447 436 C-446.34 436.33 -445.68 436.66 -445 437 C-449.41225737 438.47075246 -452.48281619 439.36884358 -457 438 C-457.185625 438.9590625 -457.185625 438.9590625 -457.375 439.9375 C-457.58125 440.618125 -457.7875 441.29875 -458 442 C-458.99 442.495 -458.99 442.495 -460 443 C-459.67 443.99 -459.34 444.98 -459 446 C-460.32 446 -461.64 446 -463 446 C-463.12375 446.721875 -463.2475 447.44375 -463.375 448.1875 C-464 451 -464 451 -465.125 453.375 C-466.2821119 456.8463357 -465.69494821 459.45576415 -465 463 C-465.99 463.495 -465.99 463.495 -467 464 C-467.99 463.01 -468.98 462.02 -470 461 C-470.33 463.31 -470.66 465.62 -471 468 C-471.66 468 -472.32 468 -473 468 C-473 466.35 -473 464.7 -473 463 C-476.13657296 464.59575188 -476.13657296 464.59575188 -476.44140625 466.91015625 C-476.48136719 467.62042969 -476.52132812 468.33070313 -476.5625 469.0625 C-476.706875 470.361875 -476.85125 471.66125 -477 473 C-477.99 473.495 -477.99 473.495 -479 474 C-479 472.35 -479 470.7 -479 469 C-483.13359071 472.3335409 -483.34792705 474.87656966 -484 480 C-485.5625 481.9375 -485.5625 481.9375 -487 483 C-487.33 482.01 -487.66 481.02 -488 480 C-488 484.62 -488 489.24 -488 494 C-489.95216435 490.09567131 -490.50639991 487.27786748 -491 483 C-494.41760055 484.41417954 -496.17429506 485.76352307 -498 489 C-498.5546573 491.28485695 -498.99926006 493.55792935 -499.375 495.87890625 C-500.09687885 498.32878259 -501.07734564 499.36469888 -503 501 C-503.66 500.67 -504.32 500.34 -505 500 C-505.33 501.32 -505.66 502.64 -506 504 C-506.66 504 -507.32 504 -508 504 C-507.67 502.35 -507.34 500.7 -507 499 C-507.66 499 -508.32 499 -509 499 C-511.62096065 505.88002171 -511.18170362 512.72176039 -511 520 C-511.66 520 -512.32 520 -513 520 C-513.33 516.04 -513.66 512.08 -514 508 C-514.66 508 -515.32 508 -516 508 C-516.268125 508.721875 -516.53625 509.44375 -516.8125 510.1875 C-518 513 -518 513 -519.4375 515.3125 C-520.80608372 517.666464 -521.43639404 519.43372131 -522.1875 522 C-523.41747059 525.51980947 -524.65460867 526.66060119 -527.9375 528.375 C-533.25773899 531.25923213 -534.21807382 535.48825776 -536 541 C-536.7734375 542.6396875 -536.7734375 542.6396875 -537.5625 544.3125 C-540.74215063 552.4689951 -542.13321733 561.24550382 -543.5703125 569.85546875 C-544 572 -544 572 -545 574 C-545.08471364 575.81341842 -545.10721083 577.62994161 -545.09765625 579.4453125 C-545.09282227 581.05986328 -545.09282227 581.05986328 -545.08789062 582.70703125 C-545.07951172 583.83496094 -545.07113281 584.96289062 -545.0625 586.125 C-545.05573242 587.82849609 -545.05573242 587.82849609 -545.04882812 589.56640625 C-545.03701615 592.37765638 -545.02054507 595.1888023 -545 598 C-546.26881455 598.50123449 -547.54014497 598.99610338 -548.8125 599.48828125 C-549.52019531 599.76454346 -550.22789062 600.04080566 -550.95703125 600.32543945 C-553.38024602 601.12555207 -555.46556586 601.2376032 -558 601 C-558 599.68 -558 598.36 -558 597 C-556.02 596.67 -554.04 596.34 -552 596 C-550.99655747 589.69264693 -550.49126929 583.36559573 -550 577 C-550.33 577 -550.66 577 -551 577 C-550.76070249 574.84632239 -550.5212793 572.69265868 -550.28125 570.5390625 C-550.11224009 569.01327857 -549.94499719 567.48729519 -549.78125 565.9609375 C-549.62773599 564.54093286 -549.46694362 563.1217052 -549.30078125 561.703125 C-549.06347797 559.57047732 -548.85959854 557.43411083 -548.66796875 555.296875 C-547.92631427 547.6619797 -546.69530579 541.20418325 -543.44140625 534.171875 C-541.66492621 530.26265606 -540.17436062 526.2763973 -538.6875 522.25 C-538.42098633 521.53328125 -538.15447266 520.8165625 -537.87988281 520.078125 C-537.25118774 518.38618346 -536.62528277 516.69320557 -536 515 C-535.34 515 -534.68 515 -534 515 C-534 514.01 -534 513.02 -534 512 C-537.96 512.99 -541.92 513.98 -546 515 C-546 514.01 -546 513.02 -546 512 C-541.08334206 509.13194953 -536.10915111 506.50975844 -531 504 C-531.33 503.01 -531.66 502.02 -532 501 C-531.45730469 500.73445313 -530.91460938 500.46890625 -530.35546875 500.1953125 C-529.64003906 499.84210938 -528.92460938 499.48890625 -528.1875 499.125 C-527.47980469 498.77695312 -526.77210938 498.42890625 -526.04296875 498.0703125 C-523.78753582 496.9343514 -523.78753582 496.9343514 -521 495 C-521.69867187 495.02320313 -522.39734375 495.04640625 -523.1171875 495.0703125 C-524.02726562 495.08835937 -524.93734375 495.10640625 -525.875 495.125 C-526.77992188 495.14820313 -527.68484375 495.17140625 -528.6171875 495.1953125 C-531 495 -531 495 -533 493 C-529.71508627 490.81005752 -528.16904361 490.64722661 -524.3125 490.375 C-522.82169922 490.26285156 -522.82169922 490.26285156 -521.30078125 490.1484375 C-520.54152344 490.09945313 -519.78226563 490.05046875 -519 490 C-519.33 488.68 -519.66 487.36 -520 486 C-517.03 484.68 -514.06 483.36 -511 482 C-514.3 481.67 -517.6 481.34 -521 481 C-521 480.34 -521 479.68 -521 479 C-520.32453125 478.86722656 -519.6490625 478.73445313 -518.953125 478.59765625 C-518.06109375 478.42105469 -517.1690625 478.24445313 -516.25 478.0625 C-515.36828125 477.88847656 -514.4865625 477.71445312 -513.578125 477.53515625 C-511.36764947 477.07631512 -509.18487932 476.56663926 -507 476 C-506.938125 475.1028125 -506.938125 475.1028125 -506.875 474.1875 C-505.55453314 470.88633285 -503.14712081 470.37686535 -500 469 C-499.67 468.67 -499.34 468.34 -499 468 C-500.98 467.34 -502.96 466.68 -505 466 C-504.67 465.34 -504.34 464.68 -504 464 C-502.07844207 463.4970809 -500.13628884 463.07160227 -498.1875 462.6875 C-493.37706534 461.6067752 -493.37706534 461.6067752 -489.5625 458.625 C-489.046875 457.75875 -488.53125 456.8925 -488 456 C-487.113125 455.154375 -486.22625 454.30875 -485.3125 453.4375 C-483.00555922 451.00585972 -482.60234171 450.13085306 -482 447 C-489.02789692 446.51900325 -494.09208503 447.13045216 -500.5 450.046875 C-503.99457471 451.37918161 -507.35506899 451.62157163 -511.06640625 451.82421875 C-513.00591837 451.79252357 -513.00591837 451.79252357 -514 453 C-515.03125 452.979375 -516.0625 452.95875 -517.125 452.9375 C-520.47741085 452.99157114 -522.79737712 453.51088475 -525.95214844 454.45874023 C-529.92570958 455.50897689 -533.99613853 456.00227201 -538.0625 456.5625 C-538.98119873 456.69180908 -539.89989746 456.82111816 -540.84643555 456.9543457 C-548.21927226 457.96122589 -555.5652547 458.63763426 -563 459 C-563 459.66 -563 460.32 -563 461 C-563.62656494 460.98912354 -564.25312988 460.97824707 -564.89868164 460.96704102 C-572.7812297 460.89217285 -580.57905349 461.35462732 -588.4375 461.9375 C-589.68982422 462.02451172 -590.94214844 462.11152344 -592.23242188 462.20117188 C-598.08000789 462.46445195 -598.08000789 462.46445195 -603.8037262 463.51643372 C-606.58715023 464.12927626 -609.13978688 464.08058684 -611.99023438 464.03417969 C-613.19828735 464.0179657 -614.40634033 464.00175171 -615.65100098 463.98504639 C-616.95210815 463.96419983 -618.25321533 463.94335327 -619.59375 463.921875 C-621.63910032 463.89983723 -623.68446549 463.88134835 -625.72985077 463.86287308 C-630.77218491 463.8171739 -635.81413839 463.76404993 -640.85595703 463.67773438 C-644.36836843 463.61832201 -647.88028877 463.58336897 -651.3931427 463.56455231 C-653.37866235 463.54711725 -655.36389393 463.50332668 -657.34899902 463.45916748 C-658.557052 463.45556213 -659.76510498 463.45195679 -661.00976562 463.44824219 C-662.07247681 463.43412292 -663.13518799 463.42000366 -664.23010254 463.40545654 C-667.94762742 464.20340308 -668.8670563 465.96126651 -671 469 C-673.25 469.8125 -673.25 469.8125 -675 470 C-675 470.99 -675 471.98 -675 473 C-676.46701757 474.24377577 -677.94014929 475.48518173 -679.4921875 476.62109375 C-681.11777472 477.93997877 -681.11777472 477.93997877 -681.96484375 479.95703125 C-683.19450368 482.38386954 -684.57997399 483.54410469 -686.6875 485.25 C-690.40420025 488.37094502 -693.49024074 491.74036481 -696.5546875 495.49609375 C-697.03164063 495.99238281 -697.50859375 496.48867188 -698 497 C-698.66 497 -699.32 497 -700 497 C-700 497.66 -700 498.32 -700 499 C-701.49183959 500.19347167 -702.98419521 501.38631072 -704.48046875 502.57421875 C-706.72228652 504.67772386 -707.70838889 507.24064898 -709 510 C-711.0625 512.375 -711.0625 512.375 -713 514 C-713.66 514 -714.32 514 -715 514 C-713.7874262 510.27566618 -712.49140021 506.62197194 -711 503 C-712.32 503.33 -713.64 503.66 -715 504 C-715 504.66 -715 505.32 -715 506 C-717.85254222 508.12282212 -720.48002666 509.80356563 -723.8125 511.0625 C-724.8953125 511.5265625 -724.8953125 511.5265625 -726 512 C-726.33 512.99 -726.66 513.98 -727 515 C-727.66 515 -728.32 515 -729 515 C-729.33 516.32 -729.66 517.64 -730 519 C-731.65 519.33 -733.3 519.66 -735 520 C-735.33 521.65 -735.66 523.3 -736 525 C-736.66 525 -737.32 525 -738 525 C-738 523.02 -738 521.04 -738 519 C-739.65 518.67 -741.3 518.34 -743 518 C-743 518.66 -743 519.32 -743 520 C-745.90600261 521.25664978 -747.79604584 522 -751 522 C-751.24234375 522.62648438 -751.4846875 523.25296875 -751.734375 523.8984375 C-752.23710938 525.12433594 -752.23710938 525.12433594 -752.75 526.375 C-753.23726562 527.59316406 -753.23726562 527.59316406 -753.734375 528.8359375 C-755.19483944 531.33315139 -756.33869601 531.98244259 -759 533 C-757.8905928 529.51329166 -756.73662334 526.22515763 -755 523 C-756.32 522.67 -757.64 522.34 -759 522 C-758.67 522.99 -758.34 523.98 -758 525 C-758.70125 524.95875 -759.4025 524.9175 -760.125 524.875 C-763.4756284 525.0206795 -765.93442452 525.63752201 -769 527 C-769.69978135 528.3162554 -770.36290008 529.65228864 -771 531 C-771.98465059 532.2379957 -773.00661024 533.44717703 -774.0625 534.625 C-775.66378483 536.4181258 -776.92328158 537.84656316 -778 540 C-778.99 540 -779.98 540 -781 540 C-780.690625 539.2575 -780.38125 538.515 -780.0625 537.75 C-779.1905075 535.49307824 -778.52332993 533.3549847 -778 531 C-778.66 531 -779.32 531 -780 531 C-780.33 531.66 -780.66 532.32 -781 533 C-781.61875 533.28230469 -782.2375 533.56460938 -782.875 533.85546875 C-785.51867041 535.27935741 -786.42952098 536.7732744 -788 539.3125 C-790.16897162 542.70836466 -792.28980196 545.9994236 -795 549 C-795.66 549 -796.32 549 -797 549 C-796.46930939 545.17902761 -795.50298434 542.93828597 -793 540 C-793.33 539.34 -793.66 538.68 -794 538 C-794.639375 538.70125 -795.27875 539.4025 -795.9375 540.125 C-799.49799687 543.71636823 -803.74812946 546.30436965 -808 549 C-808.33 548.34 -808.66 547.68 -809 547 C-809.62648438 547.721875 -810.25296875 548.44375 -810.8984375 549.1875 C-811.71570313 550.115625 -812.53296875 551.04375 -813.375 552 C-814.18710937 552.928125 -814.99921875 553.85625 -815.8359375 554.8125 C-816.55007813 555.534375 -817.26421875 556.25625 -818 557 C-818.66 557 -819.32 557 -820 557 C-819.42647107 553.12867972 -817.51295648 550.91827204 -815 548 C-821.82456098 550.00030236 -824.74628039 552.44501398 -829 558 C-830.28205963 559.48750123 -831.57375417 560.96675321 -832.875 562.4375 C-833.47054687 563.11683594 -834.06609375 563.79617188 -834.6796875 564.49609375 C-835.11539063 564.99238281 -835.55109375 565.48867188 -836 566 C-836.99 565.67 -837.98 565.34 -839 565 C-838.34 563.68 -837.68 562.36 -837 561 C-841.20995732 561.41684975 -841.20995732 561.41684975 -845 563 C-846.42207249 565.37160678 -847.21041891 567.69497367 -848.0703125 570.3203125 C-849.8772745 575.52861473 -852.39748021 579.93165347 -857 583 C-856.37321829 579.33827525 -855.35548154 576.1181005 -853.9375 572.6875 C-853.57527344 571.80449219 -853.21304688 570.92148437 -852.83984375 570.01171875 C-852.56269531 569.34785156 -852.28554688 568.68398438 -852 568 C-855.69481836 569.08104583 -855.69481836 569.08104583 -858.09765625 571.890625 C-858.39542969 572.58671875 -858.69320312 573.2828125 -859 574 C-860.62109375 575.921875 -860.62109375 575.921875 -862.4375 577.75 C-863.03433594 578.36359375 -863.63117188 578.9771875 -864.24609375 579.609375 C-866 581 -866 581 -869 581 C-867.47291037 577.56404834 -865.40072955 574.88087546 -863 572 C-873.72870496 574.41395862 -881.69098775 585.5680412 -889.1875 593.125 C-890.26473707 594.20726709 -891.34220961 595.28929986 -892.41992188 596.37109375 C-894.40014254 598.35940254 -896.37872012 600.34929366 -898.35620117 602.34033203 C-900.89916817 604.89856293 -903.44815879 607.45062434 -906 610 C-906.6084375 610.6084375 -907.216875 611.216875 -907.84375 611.84375 C-909.0026049 613.0026049 -910.16287971 614.16004083 -911.32421875 615.31640625 C-912.67281526 616.67128993 -913.99678395 618.05066417 -915.3125 619.4375 C-917.7032567 621.71705871 -920.1245746 623.63064758 -922.75 625.625 C-926.60387561 628.63958714 -929.56494752 631.7612546 -932.5625 635.625 C-936.45063438 640.61708682 -940.49879978 643.91776725 -946 647 C-947.34227818 645.73861805 -948.67358677 644.46555441 -950 643.1875 C-950.7425 642.47980469 -951.485 641.77210938 -952.25 641.04296875 C-954 639 -954 639 -954 636 C-952.9275 636.350625 -951.855 636.70125 -950.75 637.0625 C-946.72143578 638.17786039 -946.72143578 638.17786039 -943 637 C-942.67 636.01 -942.34 635.02 -942 634 C-940.948125 633.1646875 -940.948125 633.1646875 -939.875 632.3125 C-937.49541086 630.39848265 -935.76945251 628.67430354 -933.8125 626.375 C-929.48271092 621.30620972 -924.74494469 616.67628794 -920 612 C-913.64168483 605.85308655 -913.64168483 605.85308655 -908.75 598.5625 C-906.43002562 595.16539465 -903.48586661 593.14356047 -900.2109375 590.6953125 C-897.56520203 588.66660368 -895.2911621 586.41844888 -893 584 C-888.33333333 579.11111111 -888.33333333 579.11111111 -885 578 C-884.58041016 577.15115234 -884.58041016 577.15115234 -884.15234375 576.28515625 C-882.54607206 573.09983782 -880.09765732 570.88671978 -877.5625 568.4375 C-876.82676758 567.71530273 -876.82676758 567.71530273 -876.07617188 566.97851562 C-874.72088335 565.64883309 -873.36061877 564.32422778 -872 563 C-871.49339844 562.47535156 -870.98679687 561.95070313 -870.46484375 561.41015625 C-868.44045716 559.46134676 -866.19422739 557.75538191 -864 556 C-869.28 556.33 -874.56 556.66 -880 557 C-880 556.01 -880 555.02 -880 554 C-875.50998954 552.37610132 -871.14169352 551.41915382 -866.4375 550.625 C-859.04402351 549.32407229 -852.14251924 547.35378475 -845 545 C-850.94 543.515 -850.94 543.515 -857 542 C-857 541.01 -857 540.02 -857 539 C-855.70707031 539.11859375 -854.41414062 539.2371875 -853.08203125 539.359375 C-842.54158271 540.18945942 -833.84654431 540.43352257 -824 536 C-823.67 535.67 -823.34 535.34 -823 535 C-823.92683594 534.80664062 -824.85367188 534.61328125 -825.80859375 534.4140625 C-827.60490234 534.02347656 -827.60490234 534.02347656 -829.4375 533.625 C-830.63246094 533.36976563 -831.82742188 533.11453125 -833.05859375 532.8515625 C-834.02925781 532.57054687 -834.99992188 532.28953125 -836 532 C-836.33 531.34 -836.66 530.68 -837 530 C-831.55745571 529.09290929 -827.46400363 528.99260075 -822.0625 530.1875 C-816.47257238 531.28118149 -813.11130619 530.45092688 -808.05859375 527.9453125 C-806 527 -806 527 -803 527 C-803 526.34 -803 525.68 -803 525 C-803.61488281 524.95101562 -804.22976563 524.90203125 -804.86328125 524.8515625 C-805.67152344 524.77679687 -806.47976563 524.70203125 -807.3125 524.625 C-808.51326172 524.52058594 -808.51326172 524.52058594 -809.73828125 524.4140625 C-812 524 -812 524 -815 522 C-814 521 -814 521 -812.21484375 520.8671875 C-808.3049193 520.88060062 -804.60703479 521.0189473 -800.75 521.6875 C-796.39035179 522.05080402 -795.53996581 521.331197 -792 519 C-789.03098134 518.16464899 -786.03167118 517.56142059 -783 517 C-784.98 516.34 -786.96 515.68 -789 515 C-789 514.34 -789 513.68 -789 513 C-787.76636719 513.06960938 -787.76636719 513.06960938 -786.5078125 513.140625 C-778.72472245 513.39227225 -772.96232666 512.52045411 -766 509 C-766.66 507.68 -767.32 506.36 -768 505 C-766.93072266 505.16048828 -766.93072266 505.16048828 -765.83984375 505.32421875 C-764.40318359 505.50404297 -764.40318359 505.50404297 -762.9375 505.6875 C-761.99777344 505.81511719 -761.05804687 505.94273437 -760.08984375 506.07421875 C-756.89414404 505.99745732 -754.88315392 505.19496614 -752.02368164 503.84399414 C-747.93740037 502.13977477 -743.55786269 501.34292477 -739.25 500.375 C-737.37995968 499.94639594 -735.51015681 499.51675422 -733.640625 499.0859375 C-732.82110352 498.9007959 -732.00158203 498.7156543 -731.15722656 498.52490234 C-728.83893505 497.99240649 -728.83893505 497.99240649 -726 497 C-724.782404 494.05747634 -724.86783178 491.94823502 -726 489 C-727.83983424 487.65768558 -727.83983424 487.65768558 -730.0625 486.75 C-731.16271484 486.24726562 -731.16271484 486.24726562 -732.28515625 485.734375 C-732.85105469 485.49203125 -733.41695312 485.2496875 -734 485 C-733.67 484.01 -733.34 483.02 -733 482 C-732.34 482.33 -731.68 482.66 -731 483 C-727.13938967 484.28687011 -724.05849717 484.13757618 -720 484 C-720.60438796 480.61542745 -721.93001365 478.6999822 -724 476 C-724 475.34 -724 474.68 -724 474 C-723.4225 474.309375 -722.845 474.61875 -722.25 474.9375 C-720.15705816 475.92583364 -718.25464725 476.5168613 -716 477 C-713.0459281 472.73422431 -713.0459281 472.73422431 -711 468 C-711.86625 467.5978125 -711.86625 467.5978125 -712.75 467.1875 C-715.05550043 465.97070811 -717.02056192 464.69666121 -719 463 C-719 462.34 -719 461.68 -719 461 C-716.03824877 461.61277612 -714.61941217 462.25372522 -712 464 C-709.88850355 464.07642709 -709.88850355 464.07642709 -708 463 C-707.27958653 461.35585078 -706.60802005 459.68894459 -706 458 C-714.27278042 457.69191025 -722.10487859 457.83274444 -730.25 459.3125 C-740.16824837 461.10338529 -750.15140743 461.8842362 -760.1875 462.6875 C-761.43074036 462.78715561 -761.43074036 462.78715561 -762.69909668 462.88882446 C-767.46535817 463.2686968 -772.23232034 463.63838345 -777 464 C-777.26264648 464.6199585 -777.52529297 465.23991699 -777.79589844 465.87866211 C-778.1468457 466.69085205 -778.49779297 467.50304199 -778.859375 468.33984375 C-779.20452148 469.14542725 -779.54966797 469.95101074 -779.90527344 470.78100586 C-781.19407709 473.39339132 -782.75396786 475.15504502 -785 477 C-785.99 476.67 -786.98 476.34 -788 476 C-788 472.37 -788 468.74 -788 465 C-791.74684506 464.06328873 -794.31625021 463.98733435 -798.125 464.125 C-805.45329555 464.19079839 -811.22168626 462.41686765 -818 459.875 C-822.27443911 458.62828859 -826.57205117 458.33253371 -831 458 C-831 457.34 -831 456.68 -831 456 C-831.83402344 455.88269531 -832.66804687 455.76539063 -833.52734375 455.64453125 C-837.31624644 454.94130409 -840.91109826 453.89242595 -844.5625 452.6875 C-845.53219727 452.38682617 -845.53219727 452.38682617 -846.52148438 452.08007812 C-850.74051004 450.69376552 -853.6606352 448.89017591 -857 446 C-857.9075 445.5875 -858.815 445.175 -859.75 444.75 C-865.48017036 441.66452365 -870.20658856 437.37363279 -874.125 432.1875 C-876.43790243 423.76192686 -873.77975245 413.09240673 -871 405 C-869 402.27734375 -869 402.27734375 -867 400 C-865.0407646 397.02486476 -863.650821 394.51443342 -863 391 C-863.66 391 -864.32 391 -865 391 C-865 390.01 -865 389.02 -865 388 C-865.66 388 -866.32 388 -867 388 C-867.226875 387.443125 -867.45375 386.88625 -867.6875 386.3125 C-868.92417116 383.83463796 -868.92417116 383.83463796 -871.375 381.9375 C-877.42913101 375.16263911 -879.32359147 365.29937713 -879.21875 356.4140625 C-878.93078013 353.23610926 -878.13949692 351.36872873 -876 349 C-874.67405895 348.63837971 -873.34061543 348.30271961 -872 348 C-871.71253906 347.40574219 -871.42507813 346.81148438 -871.12890625 346.19921875 C-863.554636 331.44380646 -833.62108303 321.04175277 -819 316 C-818.34 316 -817.68 316 -817 316 C-817.78130071 313.50447516 -817.78130071 313.50447516 -819 311 C-819.99 310.67 -820.98 310.34 -822 310 C-823.50994018 307.66435639 -824.86915145 305.37632563 -826.1875 302.9375 C-826.55552734 302.27427734 -826.92355469 301.61105469 -827.30273438 300.92773438 C-828.21012062 299.28972543 -829.10615573 297.64543779 -830 296 C-829.34 295.67 -828.68 295.34 -828 295 C-823 300 -823 300 -820.625 302.4375 C-817.98284559 305.01674597 -815.22511893 307.34899771 -812.35546875 309.66796875 C-811.90816406 310.10753906 -811.46085938 310.54710937 -811 311 C-811 311.66 -811 312.32 -811 313 C-806.25219787 312.46386847 -806.25219787 312.46386847 -801.71484375 311.05859375 C-798.43215263 309.77858038 -795.20668375 309.11674547 -791.75 308.4375 C-791.0897583 308.30746582 -790.4295166 308.17743164 -789.74926758 308.04345703 C-784.84218881 307.10082719 -779.96648951 306.50506673 -775 306 C-774.34 305.67 -773.68 305.34 -773 305 C-770.12089412 304.76725791 -767.25853505 304.58027243 -764.375 304.4375 C-763.57320312 304.39431641 -762.77140625 304.35113281 -761.9453125 304.30664062 C-759.9637489 304.20048543 -757.98189729 304.09973145 -756 304 C-756.17273438 302.90945313 -756.34546875 301.81890625 -756.5234375 300.6953125 C-756.99186561 297.0630749 -756.77133737 294.54815188 -756 291 C-755.814375 290.05125 -755.62875 289.1025 -755.4375 288.125 C-755.293125 287.42375 -755.14875 286.7225 -755 286 C-756.46043394 284.25024533 -756.46043394 284.25024533 -759 283 C-760.93274033 283.02736549 -760.93274033 283.02736549 -763.05078125 283.37890625 C-768.77358904 284.12646207 -774.48343689 284.36197621 -780.24609375 284.60546875 C-783.56587161 284.76049863 -786.64167022 284.91864946 -789.890625 285.65625 C-792 286 -792 286 -795 284 C-799.74933193 282.71541879 -802.965094 282.41420415 -807.3125 284.875 C-808.199375 285.57625 -809.08625 286.2775 -810 287 C-812.375 287.75 -812.375 287.75 -814 288 C-813.67 287.38125 -813.34 286.7625 -813 286.125 C-811.85806765 284.08981656 -811.85806765 284.08981656 -812 282 C-816.99837289 281.63121359 -821.99741342 281.30454868 -827 281 C-827.92039062 280.93167969 -828.84078125 280.86335938 -829.7890625 280.79296875 C-835.16511624 280.54356419 -837.75011242 281.83729296 -842 285 C-843.32 285 -844.64 285 -846 285 C-844.63016497 281.83884224 -844.0109362 281.0072908 -841 279 C-850.6508958 278.33998433 -857.16106125 279.25564256 -866.0390625 283.00390625 C-869 284 -869 284 -873 283 C-869.37 280.69 -865.74 278.38 -862 276 C-872.92923244 275.46805918 -872.92923244 275.46805918 -883 279 C-889.26804124 282.09384087 -889.26804124 282.09384087 -892.4375 281.6875 C-893.2109375 281.3471875 -893.2109375 281.3471875 -894 281 C-890.79871065 278.34750311 -887.58278917 276.10150155 -884 274 C-899.5358554 273.4125066 -899.5358554 273.4125066 -913 277 C-914.66617115 277.04063832 -916.33388095 277.042721 -918 277 C-918 275.68 -918 274.36 -918 273 C-917.36191406 272.80664062 -916.72382812 272.61328125 -916.06640625 272.4140625 C-915.24011719 272.15367187 -914.41382813 271.89328125 -913.5625 271.625 C-912.32693359 271.24214844 -912.32693359 271.24214844 -911.06640625 270.8515625 C-908.82201984 270.19117773 -908.82201984 270.19117773 -908 268 C-909.175625 267.62875 -910.35125 267.2575 -911.5625 266.875 C-916.57100465 265.21075672 -921.44805252 263.24843094 -926.33691406 261.26757812 C-931.00714711 259.38075715 -935.70932306 257.62480125 -940.453125 255.93359375 C-943.01697184 254.99377873 -945.53742423 253.97654515 -948.0625 252.9375 C-952.28650068 251.20059092 -956.5306132 249.97364999 -960.96875 248.90625 C-963.56774204 247.7466997 -963.87284632 246.53609578 -965 244 C-967.63178728 242.89797113 -967.63178728 242.89797113 -971 242 C-972.78017295 241.40212043 -974.55078122 240.77524813 -976.3125 240.125 C-977.60607422 239.66480469 -977.60607422 239.66480469 -978.92578125 239.1953125 C-981 238 -981 238 -981.53515625 236.01953125 C-981.68855469 235.35308594 -981.84195313 234.68664062 -982 234 C-983.83205485 232.60610565 -983.83205485 232.60610565 -986.125 231.5625 C-989.1333478 230.02279443 -991.79333428 228.47644913 -994.4375 226.375 C-999.46523607 222.68877123 -1005.72831032 220.49783103 -1012 221.125 C-1015.28798185 221.73489953 -1015.28798185 221.73489953 -1017 225 C-1017.66 225 -1018.32 225 -1019 225 C-1019 223.68 -1019 222.36 -1019 221 C-1017.515 220.01 -1017.515 220.01 -1016 219 C-1014.9590934 217.35857037 -1013.95495674 215.69287785 -1013 214 C-1012 213 -1012 213 -1009.43359375 212.703125 C-1005.00348815 213.0861603 -1001.94245077 214.67971406 -998.0625 216.75 C-997.38509766 217.09804687 -996.70769531 217.44609375 -996.00976562 217.8046875 C-992.68070027 219.5282688 -989.40588905 221.32758661 -986.16015625 223.203125 C-983.15920867 225.01571933 -983.15920867 225.01571933 -980.375 226 C-978 227 -978 227 -975.8515625 228.81640625 C-972.42551527 231.43991365 -968.90890681 233.14951839 -965 234.9375 C-964.25177979 235.28522461 -963.50355957 235.63294922 -962.73266602 235.99121094 C-957.16161545 238.54849233 -951.52732354 240.79282171 -945.77734375 242.91796875 C-943.4064891 243.84163505 -941.23567353 244.85867579 -939 246.0625 C-931.90484847 249.76103644 -924.02681977 252.33746389 -916 252 C-917.98 250.68 -919.96 249.36 -922 248 C-916.62951173 246.20983724 -911.15774959 249.10468238 -906 251 C-903.57317145 252.22164081 -901.32330522 253.58581422 -899 255 C-898.01 255 -897.02 255 -896 255 C-896.86625 253.95199219 -896.86625 253.95199219 -897.75 252.8828125 C-898.4925 251.97273437 -899.235 251.06265625 -900 250.125 C-900.7425 249.22007812 -901.485 248.31515625 -902.25 247.3828125 C-904 245 -904 245 -904 243 C-899.52296963 244.38238131 -897.53487034 246.3862982 -894.625 250 C-890.90588422 254.32339423 -888.65131204 256.27855591 -883 257 C-884.65 256.01 -886.3 255.02 -888 254 C-885.79654951 252.61264229 -884.44019703 251.97484588 -881.8125 252.125 C-876.81848533 253.67869345 -871.98954996 255.71131423 -867.59375 258.55859375 C-864.67314132 260.18164285 -862.29505525 260.69576344 -859 261.1875 C-857.989375 261.34605469 -856.97875 261.50460937 -855.9375 261.66796875 C-853.25786891 261.97085258 -850.6931101 262.06435741 -848 262 C-848.99 261.34 -849.98 260.68 -851 260 C-851 259.34 -851 258.68 -851 258 C-851.99 257.67 -852.98 257.34 -854 257 C-848.45202533 255.15067511 -842.55858411 259.70124116 -837.5625 262.1875 C-835.70734568 263.12304408 -833.85284336 264.05988736 -832 265 C-832.78375 264.38125 -833.5675 263.7625 -834.375 263.125 C-837 261 -837 261 -839 259 C-838.67 258.01 -838.34 257.02 -838 256 C-834.30340322 258.03690027 -830.95165254 260.01400364 -827.6875 262.6875 C-823.50949426 265.79715724 -819.07097967 265.88776504 -814 266 C-814 265.34 -814 264.68 -814 264 C-814.639375 263.896875 -815.27875 263.79375 -815.9375 263.6875 C-816.618125 263.460625 -817.29875 263.23375 -818 263 C-818.33 262.01 -818.66 261.02 -819 260 C-813.61235792 260.2693821 -810.99740282 262.39439543 -806.96875 265.6328125 C-804.39539441 267.41986499 -802.10103357 267.84494832 -799 268 C-801.64 265.03 -804.28 262.06 -807 259 C-806.67 258.34 -806.34 257.68 -806 257 C-802.62728234 258.43062529 -800.81326214 260.18202641 -798.4375 262.9375 C-793.93093288 267.63148579 -789.28490247 268.89089956 -783 270 C-784.32 268.02 -785.64 266.04 -787 264 C-786.67 263.34 -786.34 262.68 -786 262 C-784.68 262.66 -783.36 263.32 -782 264 C-782 264.66 -782 265.32 -782 266 C-779.35261084 267.4606285 -778.10551666 268 -775 268 C-775.495 267.21625 -775.99 266.4325 -776.5 265.625 C-778 263 -778 263 -778 261 C-774.63408134 262.44253657 -772.48952921 264.33264727 -770 267 C-770.33 265.68 -770.66 264.36 -771 263 C-769.125 263.1875 -769.125 263.1875 -767 264 C-765.75 266.5625 -765.75 266.5625 -765 269 C-764.41992188 269.03738281 -763.83984375 269.07476562 -763.2421875 269.11328125 C-758.11012763 269.54518728 -754.59164784 270.55112115 -750 273 C-746.7633037 273.70758326 -746.7633037 273.70758326 -744 274 C-744.3609375 273.38511719 -744.721875 272.77023437 -745.09375 272.13671875 C-745.5578125 271.32847656 -746.021875 270.52023437 -746.5 269.6875 C-746.9640625 268.88699219 -747.428125 268.08648437 -747.90625 267.26171875 C-749 265 -749 265 -749 262 C-745.41406246 263.46394976 -745.07227167 263.84474975 -743.3125 267.625 C-739.52503639 274.18755486 -731.58769792 276.24749253 -724.95800781 279.11132812 C-721.3942395 280.72879903 -718.23845885 282.8189971 -715 285 C-714.34 285.33 -713.68 285.66 -713 286 C-713 286.66 -713 287.32 -713 288 C-704.65519096 291.63748086 -696.13382832 288.6977033 -687.6875 286.5625 C-681.00854186 284.91703589 -674.39103392 283.40609188 -667.5703125 282.45703125 C-664.8666073 282.02627339 -664.8666073 282.02627339 -661.78515625 281.04296875 C-657.31892546 279.8123355 -652.89424698 279.13898693 -648.3125 278.5 C-646.64177043 278.26151154 -644.97119878 278.02191434 -643.30078125 277.78125 C-642.43662598 277.65806396 -641.5724707 277.53487793 -640.68212891 277.40795898 C-637.9373931 276.99047732 -635.21244786 276.49752681 -632.48046875 276.00390625 C-624.36723497 274.64230805 -616.19714595 274.05073803 -608 273.4375 C-606.72745361 273.34086563 -606.72745361 273.34086563 -605.42919922 273.24227905 C-574.31281983 270.90760847 -543.18820228 270.83550526 -512 271 C-512.33 269.35 -512.66 267.7 -513 266 C-511.02 266 -509.04 266 -507 266 C-507 265.01 -507 264.02 -507 263 C-507.61875 262.7525 -508.2375 262.505 -508.875 262.25 C-511.35068687 260.79371361 -511.95125002 259.62187494 -513 257 C-513.66 257 -514.32 257 -515 257 C-515 256.34 -515 255.68 -515 255 C-515.61875 254.87625 -516.2375 254.7525 -516.875 254.625 C-519 254 -519 254 -521 252 C-521.825 251.855625 -522.65 251.71125 -523.5 251.5625 C-526 251 -526 251 -528 248 C-530.55183404 246.79549696 -530.55183404 246.79549696 -533 246 C-533 244.02 -533 242.04 -533 240 C-534.32 239.67 -535.64 239.34 -537 239 C-537 237.68 -537 236.36 -537 235 C-537.61488281 234.93941406 -538.22976563 234.87882813 -538.86328125 234.81640625 C-539.67152344 234.73261719 -540.47976563 234.64882812 -541.3125 234.5625 C-542.11300781 234.48128906 -542.91351562 234.40007812 -543.73828125 234.31640625 C-546 234 -546 234 -549 233 C-549 232.34 -549 231.68 -549 231 C-546.69 231 -544.38 231 -542 231 C-542 230.01 -542 229.02 -542 228 C-543.32 228 -544.64 228 -546 228 C-546 227.34 -546 226.68 -546 226 C-548.31 225.34 -550.62 224.68 -553 224 C-553 222.68 -553 221.36 -553 220 C-554.258125 220.061875 -555.51625 220.12375 -556.8125 220.1875 C-560.72231986 220.20826011 -560.72231986 220.20826011 -563 218.5 C-563.33 218.005 -563.66 217.51 -564 217 C-561.29120665 215.64560332 -558.99066732 215.93498549 -556 216 C-556.66 214.35 -557.32 212.7 -558 211 C-558.66 211 -559.32 211 -560 211 C-560 210.34 -560 209.68 -560 209 C-561.65 208.67 -563.3 208.34 -565 208 C-565.33 207.01 -565.66 206.02 -566 205 C-569.05809015 203.8309917 -572.15477615 203.0203381 -575.3125 202.16015625 C-578 201 -578 201 -578.875 198.87109375 C-578.936875 197.94490234 -578.936875 197.94490234 -579 197 C-577.68 197.33 -576.36 197.66 -575 198 C-575 197.34 -575 196.68 -575 196 C-572.69 196.33 -570.38 196.66 -568 197 C-568 196.34 -568 195.68 -568 195 C-568.99 194.67 -569.98 194.34 -571 194 C-571.0825 193.030625 -571.165 192.06125 -571.25 191.0625 C-572.14102016 185.01801186 -575.02738493 179.84080199 -577.85546875 174.48828125 C-578.17757324 173.87154541 -578.49967773 173.25480957 -578.83154297 172.61938477 C-579.77707073 170.81751665 -580.74169987 169.02571159 -581.70703125 167.234375 C-583.10857578 163.72839654 -582.9492186 162.52914609 -582 159 C-582.9662501 156.98347806 -583.96708324 154.98320018 -585 153 C-585.03874921 151.33378384 -585.0450286 149.66605828 -585 148 C-585.66 147.01 -586.32 146.02 -587 145 C-587.37890625 142.80078125 -587.37890625 142.80078125 -587.5625 140.3125 C-587.92920457 135.8531105 -588.42481111 131.43717142 -589 127 C-590.485 127.495 -590.485 127.495 -592 128 C-594 126 -594 126 -594.125 122.375 C-594.063125 120.704375 -594.063125 120.704375 -594 119 C-595.98 118.34 -597.96 117.68 -600 117 C-599.67 116.34 -599.34 115.68 -599 115 C-595.04 115 -591.08 115 -587 115 C-587 115.99 -587 116.98 -587 118 C-586.34 118 -585.68 118 -585 118 C-581.55580866 131.6332574 -581.55580866 131.6332574 -582 138 C-581.34 138 -580.68 138 -580 138 C-579.20723961 140.52049393 -578.41576535 143.04138014 -577.625 145.5625 C-577.40328125 146.26697266 -577.1815625 146.97144531 -576.953125 147.69726562 C-575.9196082 150.99540012 -574.9231339 154.28388396 -574.01953125 157.62109375 C-572.61377588 162.28001481 -570.53625285 166.50672108 -568.4453125 170.890625 C-567.31158367 173.32967405 -566.34531097 175.72482465 -565.4375 178.25 C-564.963125 179.1575 -564.48875 180.065 -564 181 C-561.55936559 181.67147918 -561.55936559 181.67147918 -559 182 C-555.03294417 185.84684202 -552.89352512 190.87338146 -551 196 C-551 196.66 -551 197.32 -551 198 C-550.34 198 -549.68 198 -549 198 C-548.566875 198.9590625 -548.566875 198.9590625 -548.125 199.9375 C-547.17176549 202.15206079 -547.17176549 202.15206079 -545 203 C-545 198.71 -545 194.42 -545 190 C-541.93811273 194.08251636 -541.62756497 194.56497929 -541.8125 199.25 C-541.83957031 200.14203125 -541.86664062 201.0340625 -541.89453125 201.953125 C-541.94673828 202.96632812 -541.94673828 202.96632812 -542 204 C-540.9275 204.04125 -539.855 204.0825 -538.75 204.125 C-535 205 -535 205 -532.625 207.625 C-530.91327026 211.180131 -530.31322825 214.08464686 -530 218 C-529.01 218 -528.02 218 -527 218 C-526.01 219.32 -525.02 220.64 -524 222 C-522.515 217.05 -522.515 217.05 -521 212 C-520.34 212.33 -519.68 212.66 -519 213 C-518.875 220.625 -518.875 220.625 -520 224 C-519.01 224.33 -518.02 224.66 -517 225 C-516.67 226.65 -516.34 228.3 -516 230 C-515.34 230 -514.68 230 -514 230 C-514 230.66 -514 231.32 -514 232 C-513.34 232 -512.68 232 -512 232 C-512 230.68 -512 229.36 -512 228 C-511.34 228 -510.68 228 -510 228 C-507 234.625 -507 234.625 -507 238 C-505.35 238 -503.7 238 -502 238 C-501.67 240.31 -501.34 242.62 -501 245 C-500.01 245 -499.02 245 -498 245 C-497.91363281 245.56847656 -497.82726562 246.13695312 -497.73828125 246.72265625 C-496.80493592 251.85177419 -495.4697177 255.10187123 -492.2421875 259.16015625 C-490.00211894 262.47799364 -489.11616215 266.18155055 -488 270 C-484.7 269.34 -481.4 268.68 -478 268 C-478 268.99 -478 269.98 -478 271 C-478.99 271.66 -479.98 272.32 -481 273 C-480.67 273.66 -480.34 274.32 -480 275 C-480.66 275 -481.32 275 -482 275 C-482 275.66 -482 276.32 -482 277 C-481.01 277 -480.02 277 -479 277 C-479 277.66 -479 278.32 -479 279 C-477.28103516 279.16435547 -477.28103516 279.16435547 -475.52734375 279.33203125 C-470.98141578 279.90514824 -466.86420969 281.14274395 -462.5625 282.6875 C-461.82330322 282.94934082 -461.08410645 283.21118164 -460.32250977 283.48095703 C-454.6580668 285.57188805 -449.72778372 288.20160966 -445 292 C-443.00100837 291.00718233 -441.00989505 290.0052131 -439.03515625 288.96484375 C-438.38417969 288.62582031 -437.73320313 288.28679687 -437.0625 287.9375 C-436.41410156 287.59589844 -435.76570312 287.25429688 -435.09765625 286.90234375 C-430.23863214 284.81214902 -425.3987251 284.87267136 -420.1875 284.9375 C-419.49462891 284.94201172 -418.80175781 284.94652344 -418.08789062 284.95117188 C-416.39188932 284.96286844 -414.69593297 284.98080076 -413 285 C-411.515 281.04 -411.515 281.04 -410 277 C-409.34 277 -408.68 277 -408 277 C-408.33 274.69 -408.66 272.38 -409 270 C-408.01 270.33 -407.02 270.66 -406 271 C-401.62624091 263.48020532 -401.62624091 263.48020532 -401 255 C-400.34 255 -399.68 255 -399 255 C-398.34 255.99 -397.68 256.98 -397 258 C-392.65447158 250.55592087 -389.99850615 245.5778308 -392 237 C-390.078125 237.37109375 -390.078125 237.37109375 -388 238 C-386.75 240.0625 -386.75 240.0625 -386 242 C-385.4121875 240.63875 -385.4121875 240.63875 -384.8125 239.25 C-382.86247466 235.75340285 -381.10412956 234.45442802 -378 232 C-376.44716409 230.12025127 -375.02555763 228.1743006 -373.6015625 226.1953125 C-371.97160975 223.96108458 -370.2451778 221.83245421 -368.5 219.6875 C-362.3065309 211.74609628 -357.93501094 204.00351909 -357.75 193.8125 C-357.71132812 192.52279297 -357.71132812 192.52279297 -357.671875 191.20703125 C-357.78015625 190.47871094 -357.8884375 189.75039062 -358 189 C-358.99 188.34 -359.98 187.68 -361 187 C-361 186.34 -361 185.68 -361 185 C-352.66550523 185.80139373 -352.66550523 185.80139373 -350 189 C-349.05242064 194.68547614 -350.93758666 199.10113323 -353 204.37890625 C-354.09539526 207.09923806 -354.09539526 207.09923806 -354.875 210.4375 C-357.62653458 219.15069284 -361.48523949 226.13829039 -368.23828125 232.3125 C-370.31923826 234.3057892 -371.62600117 236.48100214 -373 239 C-373.66 239.33 -374.32 239.66 -375 240 C-375.19983087 241.93169841 -375.39774724 243.86363147 -375.58203125 245.796875 C-376.2580567 249.36022413 -378.10048066 251.93625913 -380 255 C-380 255.66 -380 256.32 -380 257 C-378.35 257.33 -376.7 257.66 -375 258 C-377.30702868 260.69030501 -379.01654999 261.42023803 -382.4375 262.1875 C-385.31924097 263.05108361 -386.65426261 263.53901682 -388.4765625 265.96875 C-389.44846888 267.95451555 -390.28927868 269.90759667 -391 272 C-391.66 272 -392.32 272 -393 272 C-393 272.99 -393 273.98 -393 275 C-391.35 275.33 -389.7 275.66 -388 276 C-390.35963915 277.17981958 -392.68895237 278.28936 -395.125 279.3125 C-398.15048731 280.76331222 -398.15048731 280.76331222 -399.4375 283.5625 C-400.27025561 285.99022331 -400.27025561 285.99022331 -399 288 C-400.32 288.66 -401.64 289.32 -403 290 C-401.96224083 290.92108802 -400.91953202 291.83659971 -399.875 292.75 C-399.29492188 293.26046875 -398.71484375 293.7709375 -398.1171875 294.296875 C-393.96864283 297.63408067 -389.42570029 300.35691299 -384.8996582 303.14624023 C-379.14393795 306.72604643 -374.1515392 310.32148137 -369.55078125 315.37109375 C-365.32791557 319.80669825 -359.94702198 321.41786659 -354 322 C-345.2633255 321.14744898 -336.98123561 318.53659542 -329 315 C-327.36450095 314.46716773 -325.71910118 313.96307654 -324.0625 313.5 C-319.61052098 312.20317728 -315.31787178 310.6837455 -311 309 C-309.99839844 308.61714844 -308.99679687 308.23429687 -307.96484375 307.83984375 C-301.28571871 305.28537136 -294.62522931 302.69117842 -288 300 C-286.58267578 299.43152344 -286.58267578 299.43152344 -285.13671875 298.8515625 C-277.90103165 295.90473273 -270.95508981 292.5519075 -264 289 C-261.81292498 287.91580896 -259.62540409 286.832517 -257.4375 285.75 C-249.32146431 281.69198216 -241.29990867 277.4591065 -233.28369141 273.20800781 C-231.18592504 272.09834906 -229.08412896 270.99686934 -226.98046875 269.8984375 C-219.87604051 266.17287753 -212.93277533 262.25687807 -206.09667969 258.05639648 C-202.47625795 255.83916488 -198.79469664 253.89734832 -195 252 C-192.88262268 250.73010495 -190.77875849 249.43746259 -188.6875 248.125 C-185.00401025 245.82906917 -181.31481841 243.57311758 -177.5 241.5 C-170.44222061 237.65148813 -163.58169036 233.38779357 -156.89453125 228.9296875 C-154.41983043 227.27988695 -151.92886963 225.71016797 -149.375 224.1875 C-148.51648438 223.67445313 -147.65796875 223.16140625 -146.7734375 222.6328125 C-144.86892101 221.51156195 -142.95700105 220.40282118 -141.0390625 219.3046875 C-135.38680888 216.06444956 -129.94890084 212.69272961 -124.65234375 208.8984375 C-121.50247869 206.64389491 -118.31539664 204.44660796 -115.125 202.25 C-110.87207912 199.32595243 -110.87207912 199.32595243 -106.7421875 196.234375 C-105 195 -105 195 -103 195 C-102.77828125 194.43152344 -102.5565625 193.86304688 -102.328125 193.27734375 C-100.59517144 190.30583809 -98.44708478 188.68848076 -95.75 186.5625 C-94.76257813 185.77488281 -93.77515625 184.98726562 -92.7578125 184.17578125 C-91.84773437 183.45777344 -90.93765625 182.73976562 -90 182 C-86.11209161 178.86224821 -82.49097567 175.58048787 -79 172 C-77.33333333 170.33333333 -75.66666667 168.66666667 -74 167 C-73.10861328 166.07380859 -73.10861328 166.07380859 -72.19921875 165.12890625 C-71.57660156 164.48824219 -70.95398438 163.84757813 -70.3125 163.1875 C-69.73113281 162.58292969 -69.14976562 161.97835937 -68.55078125 161.35546875 C-67 160 -67 160 -65 160 C-64.62294922 159.13181641 -64.62294922 159.13181641 -64.23828125 158.24609375 C-62.84407086 155.71716323 -61.26209642 154.0656954 -59.1875 152.0625 C-58.4759375 151.36640625 -57.764375 150.6703125 -57.03125 149.953125 C-55.41946636 148.40333304 -53.80410809 146.85725884 -52.1875 145.3125 C-49.93903872 143.10192951 -49.93903872 143.10192951 -48.5 140.5 C-46.31350453 136.85584088 -43.72486676 133.78851052 -39.8125 132 C-37.76430193 131.1253279 -37.76430193 131.1253279 -37.1328125 128.70703125 C-35.85662895 125.65739263 -34.37169255 124.0384501 -32.0625 121.6875 C-23.76586052 112.73515837 -17.02739953 102.28088699 -11.12109375 91.625 C-10.75113281 91.08875 -10.38117187 90.5525 -10 90 C-9.34 90 -8.68 90 -8 90 C-7.8865625 89.14664063 -7.773125 88.29328125 -7.65625 87.4140625 C-6.96784217 83.83270271 -5.86128298 80.75446415 -4.5 77.375 C-2.25998189 71.78797808 -0.86989608 67.50437609 -0.90234375 61.47216797 C-0.90564697 60.36356415 -0.9089502 59.25496033 -0.91235352 58.11276245 C-0.92065186 56.91797272 -0.9289502 55.72318298 -0.9375 54.4921875 C-0.94128662 53.25638947 -0.94507324 52.02059143 -0.94897461 50.74734497 C-0.9612005 46.78986677 -0.97957294 42.83244204 -1 38.875 C-1.02669414 33.68489741 -1.04667035 28.49483341 -1.0625 23.3046875 C-1.07079834 22.12204315 -1.07909668 20.9393988 -1.08764648 19.72091675 C-1.1071029 13.07969635 -0.82998218 6.59131702 0 0 Z M-507 239 C-507 239.66 -507 240.32 -507 241 C-506.34 240.67 -505.68 240.34 -505 240 C-505.66 239.67 -506.32 239.34 -507 239 Z M-382 255 C-381 257 -381 257 -381 257 Z M-754 300 C-753.67 300.99 -753.34 301.98 -753 303 C-752.34 303 -751.68 303 -751 303 C-751 302.01 -751 301.02 -751 300 C-751.99 300 -752.98 300 -754 300 Z " fill="#000000" transform="translate(1019,0)"/>
<path d="" fill="#000000" transform="translate(0,0)"/>
<path d="" fill="#000000" transform="translate(0,0)"/>
<path d="" fill="#000000" transform="translate(0,0)"/>
<path d="" fill="#000000" transform="translate(0,0)"/>
<path d="" fill="#000000" transform="translate(0,0)"/>
<path d="" fill="#000000" transform="translate(0,0)"/>
<path d="" fill="#000000" transform="translate(0,0)"/>
</svg>
